<?xml version="1.0" encoding="UTF-8" standalone="no"?>
<!DOCTYPE svg PUBLIC "-//W3C//DTD SVG 1.1//EN" "http://www.w3.org/Graphics/SVG/1.1/DTD/svg11.dtd">
<svg width="100%" height="100%" viewBox="0 0 2118 614" version="1.1" xmlns="http://www.w3.org/2000/svg" xmlns:xlink="http://www.w3.org/1999/xlink" xml:space="preserve" xmlns:serif="http://www.serif.com/" style="fill-rule:evenodd;clip-rule:evenodd;stroke-linejoin:round;stroke-miterlimit:2;">
    <g transform="matrix(1,0,0,1,-50.9167,-5.31021)">
        <g transform="matrix(4.16667,0,0,4.16667,-1085,-1318)">
            <g transform="matrix(1,0,0,1,339.177,377.686)">
                <path d="M0,30.889C-1.474,36.015 -4.283,44.088 -6.038,47.599C-8.776,48.16 -18.956,50.408 -26.117,50.408C-54.411,50.408 -66.557,32.504 -66.557,16.146C-66.557,-4.986 -49.637,-19.519 -24.151,-19.519C-15.235,-19.519 -7.161,-17.272 -4.423,-16.641C-3.51,-11.024 -2.598,-6.319 -1.965,0.491L-5.827,1.122C-9.127,-11.305 -17.833,-14.885 -26.187,-14.885C-42.124,-14.885 -50.62,-0.913 -50.62,14.11C-50.62,33.067 -39.877,45.423 -24.994,45.423C-15.937,45.423 -9.197,40.017 -3.721,29.274L0,30.889Z" style="fill:white;fill-rule:nonzero;"/>
            </g>
        </g>
        <g transform="matrix(4.16667,0,0,4.16667,-1085,-1318)">
            <g transform="matrix(1,0,0,1,366.912,423.669)">
                <path d="M0,-39.595C-4.353,-39.595 -8.706,-34.189 -8.706,-22.536C-8.706,-10.11 -4.353,-0.069 2.247,-0.069C6.248,-0.069 10.531,-2.387 10.531,-17.552C10.531,-31.873 6.88,-39.595 0.14,-39.595L0,-39.595ZM1.544,-43.597C16.147,-43.597 25.485,-32.857 25.485,-20.64C25.485,-4.141 13.198,4.002 1.053,4.002C-15.446,4.002 -23.59,-7.512 -23.59,-18.745C-23.59,-35.033 -10.321,-43.597 1.474,-43.597L1.544,-43.597Z" style="fill:rgb(193,33,46);fill-rule:nonzero;"/>
            </g>
        </g>
        <g transform="matrix(4.16667,0,0,4.16667,-1085,-1318)">
            <g transform="matrix(1,0,0,1,495.325,423.953)">
                <path d="M0,-60.59C-6.952,-59.467 -8.776,-57.923 -11.656,-49.286C-13.971,-42.898 -20.221,-25.066 -29.137,3.65L-34.613,3.65C-40.439,-11.798 -45.987,-26.61 -52.023,-42.337L-52.234,-42.337C-57.782,-26.61 -63.188,-11.304 -68.312,3.65L-73.929,3.65C-79.616,-14.886 -84.741,-32.016 -90.779,-50.059C-93.377,-57.992 -95.062,-59.677 -101.45,-60.59L-101.45,-64.24L-70.349,-64.24L-70.349,-60.59C-78.422,-59.677 -78.422,-57.992 -76.877,-52.797C-73.368,-40.722 -69.716,-28.786 -66.066,-17.413L-65.855,-17.413C-60.729,-31.945 -55.395,-47.602 -50.409,-63.61L-45.354,-63.61C-39.317,-47.882 -33.349,-32.016 -27.381,-17.132L-27.17,-17.132C-22.888,-29.91 -18.675,-46.128 -17.271,-51.884C-15.658,-57.992 -16.219,-59.747 -24.644,-60.59L-24.644,-64.24L0,-64.24L0,-60.59Z" style="fill:white;fill-rule:nonzero;"/>
            </g>
        </g>
        <g transform="matrix(4.16667,0,0,4.16667,-1085,-1318)">
            <g transform="matrix(1,0,0,1,510.492,423.669)">
                <path d="M0,-39.595C-4.354,-39.595 -8.706,-34.189 -8.706,-22.536C-8.706,-10.11 -4.354,-0.069 2.246,-0.069C6.249,-0.069 10.531,-2.387 10.531,-17.552C10.531,-31.873 6.88,-39.595 0.14,-39.595L0,-39.595ZM1.544,-43.597C16.147,-43.597 25.484,-32.857 25.484,-20.64C25.484,-4.141 13.198,4.002 1.053,4.002C-15.447,4.002 -23.59,-7.512 -23.59,-18.745C-23.59,-35.033 -10.321,-43.597 1.474,-43.597L1.544,-43.597Z" style="fill:white;fill-rule:nonzero;"/>
            </g>
        </g>
        <g transform="matrix(4.16667,0,0,4.16667,-1085,-1318)">
            <g transform="matrix(1,0,0,1,558.305,415.526)">
                <path d="M0,-24.643C3.862,-31.102 8.073,-35.454 11.795,-35.454C16.077,-35.454 18.955,-32.645 18.955,-29.136C18.955,-25.485 16.709,-22.607 13.901,-21.553C12.357,-21.061 11.373,-21.344 10.671,-21.975C8.916,-23.378 7.442,-24.15 5.758,-24.15C3.721,-24.15 1.545,-22.607 -0.211,-18.535L-0.211,0.14C-0.211,6.459 0.281,6.881 8.566,7.583L8.566,10.952L-20.22,10.952L-20.22,7.583C-14.532,6.95 -13.48,6.459 -13.48,0.14L-13.48,-22.185C-13.48,-27.311 -14.322,-27.732 -19.096,-28.854L-19.096,-31.804C-13.059,-32.506 -6.95,-33.629 -0.211,-35.595L-0.211,-24.643L0,-24.643Z" style="fill:white;fill-rule:nonzero;"/>
            </g>
        </g>
        <g transform="matrix(4.16667,0,0,4.16667,-1085,-1318)">
            <g transform="matrix(1,0,0,1,612.507,354.306)">
                <path d="M0,72.383C-3.158,68.661 -9.337,59.184 -14.041,52.023C-14.743,50.969 -15.375,50.618 -15.937,50.478C-16.288,50.408 -16.639,50.267 -16.99,50.267L-16.99,61.149C-16.99,67.748 -16.077,67.89 -10.108,68.803L-10.108,72.172L-36.929,72.172L-36.929,68.803C-30.609,67.89 -29.978,67.748 -29.978,61.149L-29.978,13.55C-29.978,7.863 -30.89,7.161 -36.296,6.528L-36.296,3.58C-31.733,3.019 -24.361,1.895 -16.99,0L-16.99,47.319C-14.532,46.687 -12.566,44.862 -11.162,43.317C-8.915,41 -6.037,36.577 -4.915,34.472C-3.791,32.295 -4.282,31.031 -8.213,30.329L-8.213,27.171L14.745,26.327L14.745,29.416C8.284,30.47 4.424,31.803 1.404,34.611C-1.544,37.49 -3.089,39.245 -6.037,43.107C-3.3,47.6 6.249,59.675 9.268,63.397C12.778,67.399 14.604,68.17 18.325,68.803L18.325,72.172L0,72.383Z" style="fill:white;fill-rule:nonzero;"/>
            </g>
        </g>
        <g transform="matrix(4.16667,0,0,4.16667,-1085,-1318)">
            <g transform="matrix(1,0,0,1,662.477,340.646)">
                <path d="M0,101.109C-7.354,93.76 -12.711,85.189 -16.19,76.065C-16.375,75.589 -16.528,75.094 -16.7,74.616C-25.693,49.409 -20.178,20.181 0.007,0.001C27.673,-27.669 72.37,-27.901 100.343,-0.726C100.097,-0.98 99.862,-1.242 99.616,-1.492C70.874,-30.237 24.268,-30.237 -4.476,-1.496C-33.224,27.253 -33.224,73.856 -4.483,102.601C24.268,131.346 70.874,131.346 99.616,102.598C99.869,102.347 100.097,102.09 100.343,101.836C72.37,129.012 27.673,128.78 0,101.109" style="fill:white;fill-rule:nonzero;"/>
            </g>
        </g>
        <g transform="matrix(4.16667,0,0,4.16667,-1085,-1318)">
            <g transform="matrix(1,0,0,1,756.53,344.044)">
                <path d="M0,94.314C6.861,87.458 11.858,79.463 15.105,70.953C15.276,70.509 15.417,70.048 15.578,69.597C23.968,46.087 18.822,18.827 -0.005,-0.002C-25.81,-25.809 -67.503,-26.026 -93.598,-0.678C-93.365,-0.913 -93.148,-1.161 -92.92,-1.392C-66.106,-28.201 -22.636,-28.201 4.177,-1.396C30.992,25.42 30.992,68.892 4.184,95.707C-22.636,122.515 -66.106,122.515 -92.92,95.702C-93.154,95.469 -93.365,95.226 -93.598,94.99C-67.503,120.339 -25.81,120.121 0,94.314" style="fill:white;fill-rule:nonzero;"/>
            </g>
        </g>
        <g transform="matrix(4.16667,0,0,4.16667,-1085,-1318)">
            <g transform="matrix(1,0,0,1,661.922,378.414)">
                <path d="M0,18.008L12.669,18.008L12.669,0L12.526,0C9.313,4.16 4.68,10.777 0,18.008" style="fill:rgb(193,33,46);fill-rule:nonzero;"/>
            </g>
        </g>
        <g transform="matrix(4.16667,0,0,4.16667,-1085,-1318)">
            <g transform="matrix(1,0,0,1,732.555,378.414)">
                <path d="M0,18.008L12.667,18.008L12.667,0L12.526,0C9.312,4.16 4.679,10.777 0,18.008" style="fill:rgb(193,33,46);fill-rule:nonzero;"/>
            </g>
        </g>
        <g transform="matrix(4.16667,0,0,4.16667,-1085,-1318)">
            <g transform="matrix(1,0,0,1,759.875,372.318)">
                <path d="M0,37.764L0,40.129L-21.129,40.129L-21.129,37.764C-14.842,37.153 -14.653,36.157 -14.653,31.857L-14.653,28.074L-32.569,28.074L-32.569,25.192C-24.914,14.653 -17.489,4.868 -10.776,-3.168L-5.768,-3.168L-5.768,24.104L0.71,24.104L0.71,28.074L-5.768,28.074L-5.768,32.187C-5.768,36.49 -5.293,37.153 0,37.764M-43.967,36.254C-47.983,39.042 -52.994,40.932 -57.2,40.932C-59.943,40.932 -62.921,39.988 -64.48,38.757C-65.993,37.574 -66.275,36.819 -66.275,35.874C-66.275,34.74 -65.235,33.086 -63.96,32.142C-63.11,31.572 -62.354,31.857 -61.408,32.756C-59.66,34.269 -56.305,36.962 -52.38,36.962C-47.983,36.962 -45.904,33.181 -45.904,28.264C-45.904,22.023 -49.922,18.006 -56.257,18.006C-59.518,18.006 -62.59,18.906 -64.01,19.424L-60.843,-2.745L-38.389,-2.745L-38.009,-2.081L-40.329,4.678L-58.288,4.678L-60.226,15.36C-56.637,13.943 -52.805,13.091 -51.01,13.091C-42.028,13.091 -36.971,18.718 -36.971,24.578C-36.971,28.831 -39.098,32.849 -43.967,36.254M-69.924,28.074L-76.399,28.074L-76.399,32.187C-76.399,36.49 -75.924,37.153 -70.632,37.764L-70.632,40.129L-91.761,40.129L-91.761,37.764C-85.476,37.153 -85.284,36.157 -85.284,31.857L-85.284,28.074L-103.201,28.074L-103.201,25.192C-95.541,14.653 -88.122,4.868 -81.409,-3.168L-76.399,-3.168L-76.399,24.104L-69.924,24.104L-69.924,28.074ZM-51.247,-44.534C-86.271,-44.534 -114.663,-16.143 -114.663,18.883C-114.663,53.907 -86.271,82.298 -51.247,82.298C-16.222,82.298 12.17,53.907 12.17,18.883C12.17,-16.143 -16.222,-44.534 -51.247,-44.534" style="fill:rgb(193,33,46);fill-rule:nonzero;"/>
            </g>
        </g>
    </g>
</svg>
